<svg width="107" height="74" viewBox="0 0 107 74" fill="none" xmlns="http://www.w3.org/2000/svg">
<path fill-rule="evenodd" clip-rule="evenodd" d="M53.5 64.8217C68.9147 64.8217 81.4109 52.3256 81.4109 36.9109C81.4109 21.4961 68.9147 9 53.5 9C38.0853 9 25.5891 21.4961 25.5891 36.9109C25.5891 52.3256 38.0853 64.8217 53.5 64.8217ZM88.9129 47.3534C84.4085 62.6533 70.2585 73.8217 53.5 73.8217C36.7415 73.8217 22.5915 62.6533 18.0871 47.3534L0 36.9109L18.0871 26.4683C22.5915 11.1684 36.7415 0 53.5 0C70.2585 0 84.4085 11.1684 88.9129 26.4683L107 36.9109L88.9129 47.3534Z" fill="#0066FF"/>
</svg>
